REM DIRINDEX 1\2\4,1\2\5,1\3\6,1\3\7,1\3\8
REM DIRNAME folder01,folder02,folder03,folder04,folder05,folder06,folder07,folder08
TITLE ""
FILE "LV3_046_WORDS.mp3" MP3
  TRACK 01 AUDIO
    TITLE "0:"
    INDEX 01 00:00:00
  TRACK 02 AUDIO
    TITLE "6:cjc094_1670"
    INDEX 01 00:00:05
  TRACK 03 AUDIO
    TITLE "0:"
    INDEX 01 00:01:62
  TRACK 04 AUDIO
    TITLE "7:cjc094_1671"
    INDEX 01 00:02:40
  TRACK 05 AUDIO
    TITLE "0:"
    INDEX 01 00:04:09
  TRACK 06 AUDIO
    TITLE "8:cjc094_1672"
    INDEX 01 00:04:27
  TRACK 07 AUDIO
    TITLE "0:"
    INDEX 01 00:05:26
  TRACK 08 AUDIO
    TITLE "7:cjc094_1673"
    INDEX 01 00:06:00
  TRACK 09 AUDIO
    TITLE "0:"
    INDEX 01 00:06:69
  TRACK 10 AUDIO
    TITLE "8:cjc094_1674"
    INDEX 01 00:07:13
  TRACK 11 AUDIO
    TITLE "0:"
    INDEX 01 00:10:12
  TRACK 12 AUDIO
    TITLE "7:cjc094_1675"
    INDEX 01 00:10:55
  TRACK 13 AUDIO
    TITLE "0:"
    INDEX 01 00:11:72
  TRACK 14 AUDIO
    TITLE "8:cjc094_1676"
    INDEX 01 00:12:14
  TRACK 15 AUDIO
    TITLE "0:"
    INDEX 01 00:13:16
  TRACK 16 AUDIO
    TITLE "7:cjc094_1677"
    INDEX 01 00:13:69
  TRACK 17 AUDIO
    TITLE "0:"
    INDEX 01 00:15:05
  TRACK 18 AUDIO
    TITLE "8:cjc094_1678"
    INDEX 01 00:15:27
  TRACK 19 AUDIO
    TITLE "0:"
    INDEX 01 00:18:58
  TRACK 20 AUDIO
    TITLE "7:cjc094_1679"
    INDEX 01 00:19:36
  TRACK 21 AUDIO
    TITLE "0:"
    INDEX 01 00:20:45
  TRACK 22 AUDIO
    TITLE "8:cjc094_1680"
    INDEX 01 00:20:61
  TRACK 23 AUDIO
    TITLE "0:"
    INDEX 01 00:22:40
  TRACK 24 AUDIO
    TITLE "7:cjc094_1681"
    INDEX 01 00:23:16
  TRACK 25 AUDIO
    TITLE "0:"
    INDEX 01 00:24:24
  TRACK 26 AUDIO
    TITLE "8:cjc094_1682"
    INDEX 01 00:24:41
  TRACK 27 AUDIO
    TITLE "0:"
    INDEX 01 00:25:54
  TRACK 28 AUDIO
    TITLE "7:cjc094_1683"
    INDEX 01 00:26:28
  TRACK 29 AUDIO
    TITLE "0:"
    INDEX 01 00:27:30
  TRACK 30 AUDIO
    TITLE "8:cjc094_1684"
    INDEX 01 00:27:47
  TRACK 31 AUDIO
    TITLE "0:"
    INDEX 01 00:28:45
  TRACK 32 AUDIO
    TITLE "7:cjc094_1685"
    INDEX 01 00:29:19
  TRACK 33 AUDIO
    TITLE "0:"
    INDEX 01 00:30:26
  TRACK 34 AUDIO
    TITLE "8:cjc094_1686"
    INDEX 01 00:30:48
  TRACK 35 AUDIO
    TITLE "0:"
    INDEX 01 00:33:21
  TRACK 36 AUDIO
    TITLE "7:cjc094_1687"
    INDEX 01 00:34:02
  TRACK 37 AUDIO
    TITLE "0:"
    INDEX 01 00:35:15
  TRACK 38 AUDIO
    TITLE "8:cjc094_1688"
    INDEX 01 00:35:35
  TRACK 39 AUDIO
    TITLE "0:"
    INDEX 01 00:36:23
  TRACK 40 AUDIO
    TITLE "7:cjc094_1689"
    INDEX 01 00:37:03
  TRACK 41 AUDIO
    TITLE "0:"
    INDEX 01 00:38:08
  TRACK 42 AUDIO
    TITLE "8:cjc094_1690"
    INDEX 01 00:38:43
  TRACK 43 AUDIO
    TITLE "0:"
    INDEX 01 00:39:35
  TRACK 44 AUDIO
    TITLE "7:cjc094_1691"
    INDEX 01 00:40:09
  TRACK 45 AUDIO
    TITLE "0:"
    INDEX 01 00:41:18
  TRACK 46 AUDIO
    TITLE "8:cjc094_1692"
    INDEX 01 00:41:36
  TRACK 47 AUDIO
    TITLE "0:"
    INDEX 01 00:44:03
  TRACK 48 AUDIO
    TITLE "7:cjc094_1693"
    INDEX 01 00:44:61
  TRACK 49 AUDIO
    TITLE "0:"
    INDEX 01 00:45:61
  TRACK 50 AUDIO
    TITLE "8:cjc094_1694"
    INDEX 01 00:46:09
  TRACK 51 AUDIO
    TITLE "0:"
    INDEX 01 00:48:02
  TRACK 52 AUDIO
    TITLE "7:cjc094_1695"
    INDEX 01 00:48:48
  TRACK 53 AUDIO
    TITLE "0:"
    INDEX 01 00:50:03
  TRACK 54 AUDIO
    TITLE "8:cjc094_1696"
    INDEX 01 00:50:23
  TRACK 55 AUDIO
    TITLE "0:"
    INDEX 01 00:52:73
  TRACK 56 AUDIO
    TITLE "7:cjc094_1697"
    INDEX 01 00:53:51
  TRACK 57 AUDIO
    TITLE "0:"
    INDEX 01 00:54:52
  TRACK 58 AUDIO
    TITLE "8:cjc094_1698"
    INDEX 01 00:54:70
  TRACK 59 AUDIO
    TITLE "0:"
    INDEX 01 00:57:07
  TRACK 60 AUDIO
    TITLE "7:cjc094_1699"
    INDEX 01 00:57:62
  TRACK 61 AUDIO
    TITLE "0:"
    INDEX 01 00:58:69
  TRACK 62 AUDIO
    TITLE "8:cjc094_1700"
    INDEX 01 00:59:08
  TRACK 63 AUDIO
    TITLE "0:"
    INDEX 01 01:00:59
  TRACK 64 AUDIO
    TITLE "7:cjc094_1701"
    INDEX 01 01:01:33
  TRACK 65 AUDIO
    TITLE "0:"
    INDEX 01 01:02:22
  TRACK 66 AUDIO
    TITLE "8:cjc094_1702"
    INDEX 01 01:02:42
  TRACK 67 AUDIO
    TITLE "0:"
    INDEX 01 01:03:47
  TRACK 68 AUDIO
    TITLE "7:cjc094_1703"
    INDEX 01 01:04:23
  TRACK 69 AUDIO
    TITLE "0:"
    INDEX 01 01:05:13
  TRACK 70 AUDIO
    TITLE "8:cjc094_1704"
    INDEX 01 01:05:36
  TRACK 71 AUDIO
    TITLE "0:"
    INDEX 01 01:07:00
